<mxfile host="app.diagrams.net" modified="2023-11-22T16:40:02.263Z" agent="Mozilla/5.0 (Windows NT 10.0; Win64; x64; rv:109.0) Gecko/20100101 Firefox/119.0" etag="sPDiAQ-Ib8hpwpVnxjNb" version="22.1.3" type="device">
  <diagram name="Page-1" id="CAKlMIxyu17nMkDT_ifj">
    <mxGraphModel dx="998" dy="545" grid="1" gridSize="10" guides="1" tooltips="1" connect="1" arrows="1" fold="1" page="1" pageScale="1" pageWidth="850" pageHeight="1100" math="0" shadow="0">
      <root>
        <mxCell id="0" />
        <mxCell id="1" parent="0" />
        <mxCell id="D7MWi51H5zmShWoSvv_p-7" style="edgeStyle=orthogonalEdgeStyle;rounded=0;orthogonalLoop=1;jettySize=auto;html=1;" edge="1" parent="1" source="D7MWi51H5zmShWoSvv_p-1" target="D7MWi51H5zmShWoSvv_p-2">
          <mxGeometry relative="1" as="geometry">
            <Array as="points">
              <mxPoint x="420" y="190" />
            </Array>
          </mxGeometry>
        </mxCell>
        <mxCell id="D7MWi51H5zmShWoSvv_p-8" style="edgeStyle=orthogonalEdgeStyle;rounded=0;orthogonalLoop=1;jettySize=auto;html=1;entryX=0;entryY=0.5;entryDx=0;entryDy=0;" edge="1" parent="1" source="D7MWi51H5zmShWoSvv_p-1" target="D7MWi51H5zmShWoSvv_p-4">
          <mxGeometry relative="1" as="geometry">
            <Array as="points">
              <mxPoint x="420" y="190" />
            </Array>
          </mxGeometry>
        </mxCell>
        <mxCell id="D7MWi51H5zmShWoSvv_p-9" style="edgeStyle=orthogonalEdgeStyle;rounded=0;orthogonalLoop=1;jettySize=auto;html=1;" edge="1" parent="1" source="D7MWi51H5zmShWoSvv_p-1" target="D7MWi51H5zmShWoSvv_p-3">
          <mxGeometry relative="1" as="geometry">
            <Array as="points">
              <mxPoint x="420" y="400" />
            </Array>
          </mxGeometry>
        </mxCell>
        <mxCell id="D7MWi51H5zmShWoSvv_p-10" style="edgeStyle=orthogonalEdgeStyle;rounded=0;orthogonalLoop=1;jettySize=auto;html=1;" edge="1" parent="1" source="D7MWi51H5zmShWoSvv_p-1" target="D7MWi51H5zmShWoSvv_p-5">
          <mxGeometry relative="1" as="geometry">
            <Array as="points">
              <mxPoint x="420" y="400" />
            </Array>
          </mxGeometry>
        </mxCell>
        <mxCell id="D7MWi51H5zmShWoSvv_p-1" value="Front Page" style="rounded=0;whiteSpace=wrap;html=1;" vertex="1" parent="1">
          <mxGeometry x="360" y="40" width="120" height="60" as="geometry" />
        </mxCell>
        <mxCell id="D7MWi51H5zmShWoSvv_p-15" style="edgeStyle=orthogonalEdgeStyle;rounded=0;orthogonalLoop=1;jettySize=auto;html=1;entryX=0;entryY=0.5;entryDx=0;entryDy=0;" edge="1" parent="1" source="D7MWi51H5zmShWoSvv_p-2" target="D7MWi51H5zmShWoSvv_p-1">
          <mxGeometry relative="1" as="geometry">
            <Array as="points">
              <mxPoint x="140" y="70" />
            </Array>
          </mxGeometry>
        </mxCell>
        <mxCell id="D7MWi51H5zmShWoSvv_p-21" style="edgeStyle=orthogonalEdgeStyle;rounded=0;orthogonalLoop=1;jettySize=auto;html=1;exitX=0.25;exitY=1;exitDx=0;exitDy=0;entryX=0.25;entryY=0;entryDx=0;entryDy=0;" edge="1" parent="1" source="D7MWi51H5zmShWoSvv_p-2" target="D7MWi51H5zmShWoSvv_p-3">
          <mxGeometry relative="1" as="geometry" />
        </mxCell>
        <mxCell id="D7MWi51H5zmShWoSvv_p-2" value="Register" style="rounded=0;whiteSpace=wrap;html=1;" vertex="1" parent="1">
          <mxGeometry x="80" y="160" width="120" height="60" as="geometry" />
        </mxCell>
        <mxCell id="D7MWi51H5zmShWoSvv_p-20" style="edgeStyle=orthogonalEdgeStyle;rounded=0;orthogonalLoop=1;jettySize=auto;html=1;exitX=0.75;exitY=0;exitDx=0;exitDy=0;entryX=0.75;entryY=1;entryDx=0;entryDy=0;" edge="1" parent="1" source="D7MWi51H5zmShWoSvv_p-3" target="D7MWi51H5zmShWoSvv_p-2">
          <mxGeometry relative="1" as="geometry" />
        </mxCell>
        <mxCell id="D7MWi51H5zmShWoSvv_p-25" style="edgeStyle=orthogonalEdgeStyle;rounded=0;orthogonalLoop=1;jettySize=auto;html=1;entryX=0.75;entryY=1;entryDx=0;entryDy=0;" edge="1" parent="1" source="D7MWi51H5zmShWoSvv_p-3" target="D7MWi51H5zmShWoSvv_p-5">
          <mxGeometry relative="1" as="geometry">
            <Array as="points">
              <mxPoint x="110" y="470" />
              <mxPoint x="730" y="470" />
            </Array>
          </mxGeometry>
        </mxCell>
        <mxCell id="D7MWi51H5zmShWoSvv_p-27" style="edgeStyle=orthogonalEdgeStyle;rounded=0;orthogonalLoop=1;jettySize=auto;html=1;entryX=0;entryY=0.25;entryDx=0;entryDy=0;" edge="1" parent="1" source="D7MWi51H5zmShWoSvv_p-3" target="D7MWi51H5zmShWoSvv_p-1">
          <mxGeometry relative="1" as="geometry">
            <Array as="points">
              <mxPoint x="10" y="390" />
              <mxPoint x="10" y="55" />
            </Array>
          </mxGeometry>
        </mxCell>
        <mxCell id="D7MWi51H5zmShWoSvv_p-3" value="&lt;div&gt;List Products&lt;/div&gt;" style="rounded=0;whiteSpace=wrap;html=1;" vertex="1" parent="1">
          <mxGeometry x="80" y="360" width="120" height="60" as="geometry" />
        </mxCell>
        <mxCell id="D7MWi51H5zmShWoSvv_p-16" style="edgeStyle=orthogonalEdgeStyle;rounded=0;orthogonalLoop=1;jettySize=auto;html=1;entryX=1;entryY=0.5;entryDx=0;entryDy=0;" edge="1" parent="1" source="D7MWi51H5zmShWoSvv_p-4" target="D7MWi51H5zmShWoSvv_p-1">
          <mxGeometry relative="1" as="geometry">
            <Array as="points">
              <mxPoint x="700" y="70" />
            </Array>
          </mxGeometry>
        </mxCell>
        <mxCell id="D7MWi51H5zmShWoSvv_p-23" style="edgeStyle=orthogonalEdgeStyle;rounded=0;orthogonalLoop=1;jettySize=auto;html=1;exitX=0.25;exitY=1;exitDx=0;exitDy=0;entryX=0.25;entryY=0;entryDx=0;entryDy=0;" edge="1" parent="1" source="D7MWi51H5zmShWoSvv_p-4" target="D7MWi51H5zmShWoSvv_p-5">
          <mxGeometry relative="1" as="geometry" />
        </mxCell>
        <mxCell id="D7MWi51H5zmShWoSvv_p-4" value="List Users" style="rounded=0;whiteSpace=wrap;html=1;" vertex="1" parent="1">
          <mxGeometry x="640" y="160" width="120" height="60" as="geometry" />
        </mxCell>
        <mxCell id="D7MWi51H5zmShWoSvv_p-22" style="edgeStyle=orthogonalEdgeStyle;rounded=0;orthogonalLoop=1;jettySize=auto;html=1;exitX=0.75;exitY=0;exitDx=0;exitDy=0;entryX=0.75;entryY=1;entryDx=0;entryDy=0;" edge="1" parent="1" source="D7MWi51H5zmShWoSvv_p-5" target="D7MWi51H5zmShWoSvv_p-4">
          <mxGeometry relative="1" as="geometry" />
        </mxCell>
        <mxCell id="D7MWi51H5zmShWoSvv_p-24" style="edgeStyle=orthogonalEdgeStyle;rounded=0;orthogonalLoop=1;jettySize=auto;html=1;entryX=0.5;entryY=1;entryDx=0;entryDy=0;" edge="1" parent="1" source="D7MWi51H5zmShWoSvv_p-5" target="D7MWi51H5zmShWoSvv_p-3">
          <mxGeometry relative="1" as="geometry">
            <Array as="points">
              <mxPoint x="700" y="440" />
              <mxPoint x="140" y="440" />
            </Array>
          </mxGeometry>
        </mxCell>
        <mxCell id="D7MWi51H5zmShWoSvv_p-26" style="edgeStyle=orthogonalEdgeStyle;rounded=0;orthogonalLoop=1;jettySize=auto;html=1;entryX=1;entryY=0.25;entryDx=0;entryDy=0;" edge="1" parent="1" source="D7MWi51H5zmShWoSvv_p-5" target="D7MWi51H5zmShWoSvv_p-1">
          <mxGeometry relative="1" as="geometry">
            <Array as="points">
              <mxPoint x="840" y="390" />
              <mxPoint x="840" y="55" />
            </Array>
          </mxGeometry>
        </mxCell>
        <mxCell id="D7MWi51H5zmShWoSvv_p-41" style="rounded=0;orthogonalLoop=1;jettySize=auto;html=1;exitX=0;exitY=0;exitDx=0;exitDy=0;entryX=1;entryY=1;entryDx=0;entryDy=0;startArrow=classic;startFill=1;" edge="1" parent="1" source="D7MWi51H5zmShWoSvv_p-5" target="D7MWi51H5zmShWoSvv_p-2">
          <mxGeometry relative="1" as="geometry" />
        </mxCell>
        <mxCell id="D7MWi51H5zmShWoSvv_p-5" value="Shopping Cart" style="rounded=0;whiteSpace=wrap;html=1;" vertex="1" parent="1">
          <mxGeometry x="640" y="360" width="120" height="60" as="geometry" />
        </mxCell>
        <mxCell id="D7MWi51H5zmShWoSvv_p-11" value="User clicked &quot;list users&quot;" style="text;html=1;align=center;verticalAlign=middle;resizable=0;points=[];autosize=1;strokeColor=none;fillColor=none;" vertex="1" parent="1">
          <mxGeometry x="460" y="158" width="150" height="30" as="geometry" />
        </mxCell>
        <mxCell id="D7MWi51H5zmShWoSvv_p-12" value="User clicked &quot;register&quot;" style="text;whiteSpace=wrap;html=1;" vertex="1" parent="1">
          <mxGeometry x="240" y="158" width="120" height="40" as="geometry" />
        </mxCell>
        <mxCell id="D7MWi51H5zmShWoSvv_p-13" value="User clicked &quot;list products&quot;" style="text;whiteSpace=wrap;html=1;" vertex="1" parent="1">
          <mxGeometry x="240" y="360" width="110" height="40" as="geometry" />
        </mxCell>
        <mxCell id="D7MWi51H5zmShWoSvv_p-14" value="User clicked &quot;shopping cart&quot;" style="text;whiteSpace=wrap;html=1;" vertex="1" parent="1">
          <mxGeometry x="455" y="360" width="160" height="40" as="geometry" />
        </mxCell>
        <mxCell id="D7MWi51H5zmShWoSvv_p-28" value="User clicked &quot;register&quot;" style="text;whiteSpace=wrap;html=1;" vertex="1" parent="1">
          <mxGeometry x="180" y="270" width="120" height="40" as="geometry" />
        </mxCell>
        <mxCell id="D7MWi51H5zmShWoSvv_p-30" value="User clicked &quot;list products&quot;" style="text;whiteSpace=wrap;html=1;" vertex="1" parent="1">
          <mxGeometry x="40" y="270" width="110" height="40" as="geometry" />
        </mxCell>
        <mxCell id="D7MWi51H5zmShWoSvv_p-31" value="User clicked &quot;shopping cart&quot;" style="text;whiteSpace=wrap;html=1;" vertex="1" parent="1">
          <mxGeometry x="580" y="260" width="90" height="40" as="geometry" />
        </mxCell>
        <mxCell id="D7MWi51H5zmShWoSvv_p-36" value="User clicked &quot;list users&quot;" style="text;whiteSpace=wrap;html=1;" vertex="1" parent="1">
          <mxGeometry x="730" y="260" width="100" height="40" as="geometry" />
        </mxCell>
        <mxCell id="D7MWi51H5zmShWoSvv_p-37" value="User clicked &quot;shopping cart&quot;" style="text;whiteSpace=wrap;html=1;" vertex="1" parent="1">
          <mxGeometry x="360" y="470" width="160" height="40" as="geometry" />
        </mxCell>
        <mxCell id="D7MWi51H5zmShWoSvv_p-38" value="User clicked &quot;list products&quot;" style="text;whiteSpace=wrap;html=1;" vertex="1" parent="1">
          <mxGeometry x="360" y="420" width="160" height="20" as="geometry" />
        </mxCell>
        <mxCell id="D7MWi51H5zmShWoSvv_p-39" value="User clicked &quot;front page&quot;" style="text;whiteSpace=wrap;html=1;" vertex="1" parent="1">
          <mxGeometry x="180" y="30" width="140" height="30" as="geometry" />
        </mxCell>
        <mxCell id="D7MWi51H5zmShWoSvv_p-40" value="User clicked &quot;front page&quot;" style="text;whiteSpace=wrap;html=1;" vertex="1" parent="1">
          <mxGeometry x="550" y="30" width="140" height="30" as="geometry" />
        </mxCell>
        <mxCell id="D7MWi51H5zmShWoSvv_p-42" style="rounded=0;orthogonalLoop=1;jettySize=auto;html=1;exitX=1;exitY=0;exitDx=0;exitDy=0;entryX=0.002;entryY=1.068;entryDx=0;entryDy=0;entryPerimeter=0;startArrow=classic;startFill=1;" edge="1" parent="1" source="D7MWi51H5zmShWoSvv_p-3" target="D7MWi51H5zmShWoSvv_p-4">
          <mxGeometry relative="1" as="geometry" />
        </mxCell>
      </root>
    </mxGraphModel>
  </diagram>
</mxfile>
